PathFileType	4	(X/Y/Z)	Patient4_TMGait_0pt8_01_left_06.trc.trc
DataRate	CameraRate	NumFrames	NumMarkers	Units	OrigDataRate	OrigDataStartFrame	OrigNumFrames
89.171974522293	89.171974522293	4	33	mm	89.171974522293	106	       141
Frame#	Time	Sacral			L.Shoulder			Chest			R.Shoulder			Neck			R.ASIS			L.ASIS			R.Thigh.Superior			R.Thigh.Lateral			R.Thigh.Inferior			R.Patella			L.Thigh.Superior			L.Thigh.Lateral			L.Thigh.Inferior			L.Patella			L.Shank.Superior			L.Shank.Lateral			L.Shank.Inferior			R.Shank.Superior			R.Shank.Lateral			R.Shank.Inferior			R.Heel			R.Midfoot.Superior			R.Midfoot.Lateral			R.Toe			L.Heel			L.Midfoot.Lateral			L.Midfoot.Superior			L.Toe			L.Elbow			L.Wrist			R.Elbow			R.Wrist			
		X1	Y1	Z1	X2	Y2	Z2	X3	Y3	Z3	X4	Y4	Z4	X5	Y5	Z5	X6	Y6	Z6	X7	Y7	Z7	X8	Y8	Z8	X9	Y9	Z9	X10	Y10	Z10	X11	Y11	Z11	X12	Y12	Z12	X13	Y13	Z13	X14	Y14	Z14	X15	Y15	Z15	X16	Y16	Z16	X17	Y17	Z17	X18	Y18	Z18	X19	Y19	Z19	X20	Y20	Z20	X21	Y21	Z21	X22	Y22	Z22	X23	Y23	Z23	X24	Y24	Z24	X25	Y25	Z25	X26	Y26	Z26	X27	Y27	Z27	X28	Y28	Z28	X29	Y29	Z29	X30	Y30	Z30	X31	Y31	Z31	X32	Y32	Z32	X33	Y33	Z33	

106	7.047500000000	834.007167026653	1006.445535836482	550.462030745681	1010.154990226645	1425.527658293400	351.402253062901	1115.949650678802	1363.253107624797	513.850951589658	1036.024153335093	1441.890931601409	687.885518682125	1002.401955985843	1494.213207013955	506.579340303038	1062.829333920401	947.621641502616	665.057685145945	1045.852062015307	959.648381399928	390.099504769126	1092.823538479158	740.852296529657	637.548335419917	1004.661637155312	635.118487169863	697.103763416798	1077.854530691559	578.897813971422	618.061508868855	1071.652491205612	491.646828644246	622.297387270504	1134.331069317767	789.085825751762	421.191926105716	1100.629132129771	661.328200256144	338.232298035928	1209.369043947804	606.809907166645	398.957336927745	1232.617539150512	522.658304097065	389.741755069679	1181.493535118529	448.018823555169	378.607341639679	1054.010789282004	371.697151729317	334.940755288964	1082.767847120891	240.435533990839	379.003740897603	1042.977727267560	404.010627793504	628.617737487258	968.639647708040	301.309316700569	687.757370997163	1008.197452045011	205.905496669300	623.432198095978	870.487226337410	43.707465912090	589.073785671470	1040.605024914922	97.349423529495	629.946161730311	951.369900216562	36.672275482386	666.402964575685	1159.825788879203	44.856560578520	661.973954310216	922.704152893693	122.813876913403	426.012401003504	980.482283789339	103.312308399547	335.823846520692	1082.246256278629	135.670216036331	350.191279869002	1181.320615938322	52.464908058162	300.177847711741	1010.019203097661	1061.879863197504	265.259247782302	1122.277440574175	826.052313005062	273.887103865116	1035.122040367058	1096.043520434110	817.673654040232	1257.125592569508	970.321370579199	786.570803553652	
107	7.058714285714	833.111741860350	1006.877276742908	551.262959181966	1008.766723610158	1425.643910932741	351.760741966920	1115.401629725453	1363.091898477712	513.543892756623	1036.900997352657	1441.964637201693	688.141731128952	1001.976947162434	1494.334442914115	507.024399355827	1061.974372611448	947.400742488082	664.566927169532	1043.564088557044	959.636919658965	389.935957101038	1088.848771201553	739.951326683045	636.637147635638	999.547320091709	635.179151226417	697.149591824557	1071.294978040292	577.955473680070	617.861174114589	1063.919305391396	491.147985153121	622.225574691166	1132.935274183870	790.936192170329	421.034405471799	1100.741440852629	662.767484601491	337.836789480943	1209.377525468800	609.237914388065	398.762902982145	1234.350527352469	526.856251734969	389.322086633036	1187.327515517731	451.120141428878	378.039673450121	1065.658823188580	366.990124828699	333.241613766578	1102.498670790002	237.542184865614	377.632173510131	1034.957420505243	403.748039373622	628.633854627634	960.327204006676	301.257509914529	687.711865239683	999.580338133513	205.771952779960	623.431388899361	861.492265269295	43.687278964941	589.109860784490	1031.584259871434	97.305860945864	629.937015896790	942.319241821391	36.630115782093	666.290118269411	1150.773441368705	44.745331751050	662.012833403830	950.254720706378	109.642287425542	423.418384729955	1010.002815257557	94.024024383972	333.846182942106	1109.284640282663	132.833363629609	349.007052442348	1213.999211223169	56.218346660095	300.172706813780	1002.787740798282	1061.808987928870	266.057736993129	1099.792130500940	819.329434811409	272.850729818166	1046.839889027340	1097.074231816549	818.513721331357	1277.143274412914	990.400880645213	782.735447616544	
108	7.069928571429	832.272426850264	1007.194395461598	551.788315779930	1007.624884366260	1425.706100590035	352.017020404096	1114.945385547944	1362.803465979358	513.198547818082	1037.725011421908	1441.891474798322	688.279758313944	1001.621349391222	1494.334055386261	507.395754110342	1061.120510608739	947.094960222421	664.074010603512	1041.508409471759	959.412232570848	389.707016034630	1084.878181285678	738.974839703500	635.911929246447	994.278632940905	635.215256070400	697.174495911111	1064.658915751420	576.984069139653	617.747074415311	1056.121602574624	490.647114578898	622.206342401782	1131.299875105322	792.082498832337	420.912186685140	1100.354241916820	663.655278479574	337.336620316751	1208.608460725379	610.804635191735	398.670386020244	1235.181445337912	530.415715774400	389.085551117662	1192.353905022846	453.936416254954	377.661864701380	1077.395356020717	362.272689908105	331.129753785725	1121.968225147535	235.268377637286	376.306207919841	1026.824246114763	403.484164226999	628.652099905459	951.903234083888	301.213087175468	687.654575779967	990.912710554983	205.658173681620	623.437921808392	852.492686603683	43.654341812304	589.145766972923	1022.555772573277	97.265093093393	629.924517419983	933.264104704166	36.589574997837	666.182178227546	1141.716107916021	44.663486678695	662.055909031840	978.088404725431	97.766175150212	420.142027052205	1040.107648656613	85.822485535610	331.686252122464	1136.347444021651	130.876822591131	348.098603399926	1246.411530011066	60.969857174417	301.466359552091	995.080915409767	1061.978770865859	266.334982595831	1077.547155111922	814.306367856684	271.879146066585	1058.839822779801	1098.377263035774	819.021670012544	1295.716466633183	1011.225159951799	778.589809506958	
109	7.081142857143	831.503932555588	1007.396171774558	552.039434834083	1006.730901108364	1425.702548498584	352.155462370697	1114.580172031013	1362.390561416020	512.809330164727	1038.481586281989	1441.681711226939	688.286926171910	1001.335525012768	1494.212757677456	507.670579273481	1060.293671237579	946.704503711754	663.600577717599	1039.775547766971	959.025125707040	389.398667932395	1080.950465051248	737.915777112174	635.410684746704	988.871239531216	635.230990507466	697.175198823362	1057.978473539276	575.988330103896	617.721516529637	1048.294317015785	490.137237699732	622.227994414271	1129.464388321534	792.518604381098	420.821056655087	1099.491499775524	664.013532639707	336.679116658006	1207.137933952469	611.524401813522	398.630887245237	1235.178932271719	533.324237766953	388.990538912312	1196.579520159623	456.468532590306	377.417380827325	1089.079279205157	357.683771829310	328.679558087743	1140.952903395375	233.691189067861	375.048712330820	1018.602757576640	403.219984066072	628.663733062435	943.384772166087	301.183752566446	687.589202430833	982.204788828821	205.564579341952	623.448893371056	843.485018532087	43.609700841650	589.181145043680	1013.519300362998	97.227402354826	629.910830063722	924.204255668556	36.552976587201	666.087506929813	1132.655112831717	44.613784511035	662.104588460982	1005.858728356759	87.344939363226	416.367387107514	1070.406948255773	78.852661457292	329.470579394420	1163.111820840183	129.886921875058	347.474196783649	1278.180340457364	66.746215230011	303.975650543143	986.901039089139	1062.418098856876	266.102524931335	1055.774129931706	810.836843510529	270.985737512861	1071.053251287375	1099.992122736821	819.186673412721	1312.747784039534	1032.587013184084	774.187878779070	
